<svg viewBox="0 0 800 800" xmlns="http://www.w3.org/2000/svg"><path d="M352.792041671333,294.94826583521177 L352.699523866574,282.3556463146823 M85.63889869481437,371.8460462938556 L84.95431484097253,358.0276943697279 M352.792041671333,294.94826583521177 L85.63889869481437,371.8460462938556 M352.699523866574,282.3556463146823 L84.95431484097253,358.0276943697279 M68.27999934786124,406.3700166533133 L67.52529188328646,392.01202073118645 M85.63889869481437,371.8460462938556 L80.55136696859665,373.4292651242114 M80.55136696859665,373.4292651242114 L75.84034484828203,375.141862473599 M75.84034484828203,375.141862473599 L71.54336981210889,376.9719465302586 M71.54336981210889,376.9719465302586 L67.69557365241616,378.9066362415084 M67.69557365241616,378.9066362415084 L64.32938047720813,380.9320964605005 M64.32938047720813,380.9320964605005 L61.474172900587746,383.0336137302104 M61.474172900587746,383.0336137302104 L59.155963126838,385.1956678524558 M59.155963126838,385.1956678524558 L57.39715888454225,387.40202172591955 M57.39715888454225,387.40202172591955 L56.21617170993437,389.63583125065287 M56.21617170993437,389.63583125065287 L55.62722402044176,391.8797391495346 M55.62722402044176,391.8797391495346 L55.64001197268453,394.11601777077794 M55.64001197268453,394.11601777077794 L56.25953318232126,396.3266920864067 M56.25953318232126,396.3266920864067 L57.48586486171024,398.4937078674557 M57.48586486171024,398.4937078674557 L59.31394468200972,400.59907456594624 M59.31394468200972,400.59907456594624 L61.73353328369876,402.62503656312225 M61.73353328369876,402.62503656312225 L64.7291571388356,404.5542670653859 M64.7291571388356,404.5542670653859 L68.27999934786124,406.3700166533133 M84.95431484097253,358.0276943697279 L79.85427594383032,359.5860213598729 M79.85427594383032,359.5860213598729 L75.13140619991134,361.27170838493686 M75.13140619991134,361.27170838493686 L70.82333670065333,363.07305399853755 M70.82333670065333,363.07305399853755 L66.96529066837093,364.97738279550475 M66.96529066837093,364.97738279550475 L63.58978071027104,366.97107987854764 M63.58978071027104,366.97107987854764 L60.726274084815486,369.0396653293864 M60.726274084815486,369.0396653293864 L58.40086280658318,371.1678645405221 M58.40086280658318,371.1678645405221 L56.63602872730223,373.3396965427229 M56.63602872730223,373.3396965427229 L55.45025053598499,375.53858210207846 M55.45025053598499,375.53858210207846 L54.85780995012266,377.74743600600146 M54.85780995012266,377.74743600600146 L54.86845327798653,379.94880758791703 M54.86845327798653,379.94880758791703 L55.487218194634636,382.1250017839631 M55.487218194634636,382.1250017839631 L56.714210761115794,384.2582446895021 M56.714210761115794,384.2582446895021 L58.54438519190933,386.3308242466218 M58.54438519190933,386.3308242466218 L60.96750566288807,388.3252588847022 M60.96750566288807,388.3252588847022 L63.96808843515629,390.22448848516285 M63.96808843515629,390.22448848516285 L67.52529188328646,392.01202073118645 M71.11712356111082,407.5787603398859 L70.36774953335822,393.2019902809912 M68.27999934786124,406.3700166533133 L71.11712356111082,407.5787603398859 M67.52529188328646,392.01202073118645 L70.36774953335822,393.2019902809912 M338.0063333422621,513.241190650684 L337.84664339226237,497.2545930233334 M71.11712356111082,407.5787603398859 L338.0063333422621,513.241190650684 M70.36774953335822,393.2019902809912 L337.84664339226237,497.2545930233334 M346.09611419875375,516.0558802795729 L345.95684377645847,500.0272462318629 M338.0063333422621,513.241190650684 L346.09611419875375,516.0558802795729 M337.84664339226237,497.2545930233334 L345.95684377645847,500.0272462318629 M461.9385095431203,513.241190650684 L462.09819949312003,497.2545930233334 M346.09611419875375,516.0558802795729 L352.10070241291015,517.7310812499534 M352.10070241291015,517.7310812499534 L358.48296333887265,519.2048690005178 M358.48296333887265,519.2048690005178 L365.19408628675484,520.4645883407319 M365.19408628675484,520.4645883407319 L372.1820101083312,521.4993288591437 M372.1820101083312,521.4993288591437 L379.39177833046796,522.3000688857363 M379.39177833046796,522.3000688857363 L386.7663419061496,522.8597951870288 M386.7663419061496,522.8597951870288 L394.24677093536553,523.1735740345887 M394.24677093536553,523.1735740345887 L401.77316394896326,523.2386377374448 M401.77316394896326,523.2386377374448 L409.28512124237557,523.0544121018722 M409.28512124237557,523.0544121018722 L416.72233707168465,522.6225279557227 M416.72233707168465,522.6225279557227 L424.02532157183384,521.9467946051861 M424.02532157183384,521.9467946051861 L431.1359991303318,521.0331430561727 M431.1359991303318,521.0331430561727 L437.9982138150105,519.8895546895511 M437.9982138150105,519.8895546895511 L444.5583798931947,518.5259840410057 M444.5583798931947,518.5259840410057 L450.7658727848629,516.9541831629804 M450.7658727848629,516.9541831629804 L456.57365005076826,515.1876047703031 M456.57365005076826,515.1876047703031 L461.9385095431203,513.241190650684 M345.95684377645847,500.0272462318629 L351.97672738222496,501.67744952370083 M351.97672738222496,501.67744952370083 L358.37534397477395,503.1292580016428 M358.37534397477395,503.1292580016428 L365.1037511478105,504.3702001250184 M365.1037511478105,504.3702001250184 L372.109744567945,505.38952352067145 M372.109744567945,505.38952352067145 L379.33821436022254,506.17833699482253 M379.33821436022254,506.17833699482253 L386.73195038088545,506.72972861471874 M386.73195038088545,506.72972861471874 L394.2318550125157,507.03883585583776 M394.2318550125157,507.03883585583776 L401.7778554038316,507.10293094480346 M401.7778554038316,507.10293094480346 L409.3093786723766,506.92144796704815 M409.3093786723766,506.92144796704815 L416.7659462983716,506.49599423140637 M416.7659462983716,506.49599423140637 L424.08789857234615,505.83032408854274 M424.08789857234615,505.83032408854274 L431.21699514284853,504.93028292043937 M431.21699514284853,504.93028292043937 L438.0969223200635,503.80373676001466 M438.0969223200635,503.80373676001466 L444.6739457724635,502.46049606739086 M444.6739457724635,502.46049606739086 L450.89730287801297,500.91214252629453 M450.89730287801297,500.91214252629453 L456.71982560666913,499.17193342877016 M456.71982560666913,499.17193342877016 L462.09819949312003,497.2545930233334 M728.8277193242716,407.578760339886 L729.5770933520242,393.20199028099125 M461.9385095431203,513.241190650684 L728.8277193242716,407.578760339886 M462.09819949312003,497.2545930233334 L729.5770933520242,393.20199028099125 M717.9467703283841,372.9536301391571 L718.6402773352186,359.1178629903298 M728.8277193242716,407.578760339886 L732.7564438858291,405.85310516766964 M732.7564438858291,405.85310516766964 L736.1477918995589,404.00256687659635 M736.1477918995589,404.00256687659635 L738.9773109492772,402.04336443217187 M738.9773109492772,402.04336443217187 L741.2257571878687,399.9924263866701 M741.2257571878687,399.9924263866701 L742.8791514289862,397.86723081180145 M742.8791514289862,397.86723081180145 L743.9287748691654,395.68561518918807 M743.9287748691654,395.68561518918807 L744.3711150176409,393.46560786259795 M744.3711150176409,393.46560786259795 L744.2076623601793,391.22526011211465 M744.2076623601793,391.22526011211465 L743.4448239678937,388.98247991229846 M743.4448239678937,388.98247991229846 L742.0936373285369,386.75490535363946 M742.0936373285369,386.75490535363946 L740.1695863426806,384.55975295283645 M740.1695863426806,384.55975295283645 L737.6922820663608,382.4137103559193 M737.6922820663608,382.4137103559193 L734.6851794116071,380.3328085102668 M734.6851794116071,380.3328085102668 L731.1753474716721,378.3323412354549 M731.1753474716721,378.3323412354549 L727.1930836816307,376.4267776693616 M727.1930836816307,376.4267776693616 L722.7715855804546,374.6296718866505 M722.7715855804546,374.6296718866505 L717.9467703283841,372.9536301391571 M729.5770933520242,393.20199028099125 L733.5131495750041,391.5031403576624 M733.5131495750041,391.5031403576624 L736.910453198691,389.6813655185083 M736.910453198691,389.6813655185083 L739.7445168262115,387.7526362165966 M739.7445168262115,387.7526362165966 L741.9960761970931,385.7336209555978 M741.9960761970931,385.7336209555978 L743.651145916881,383.6415285844542 M743.651145916881,383.6415285844542 L744.7010145938232,381.49392104114344 M744.7010145938232,381.49392104114344 L745.1421900498773,379.3085473498277 M745.1421900498773,379.3085473498277 L744.9761949077918,377.1031782591072 M744.9761949077918,377.1031782591072 L744.2094793808434,374.89544256807284 M744.2094793808434,374.89544256807284 L742.8531338861438,372.702702525525 M742.8531338861438,372.702702525525 L740.9227040517344,370.54190453807126 M740.9227040517344,370.54190453807126 L738.4378702497952,368.42947360298405 M738.4378702497952,368.42947360298405 L735.4221631975146,366.3811875541985 M735.4221631975146,366.3811875541985 L731.9027334029252,364.41209798471914 M731.9027334029252,364.41209798471914 L727.9099641579699,362.53644417137014 M727.9099641579699,362.53644417137014 L723.4771423268867,360.76756422901434 M723.4771423268867,360.76756422901434 L718.6402773352186,359.1178629903298 M714.3059441905681,371.8460462938556 L714.9905280444099,358.0276943697279 M717.9467703283841,372.9536301391571 L714.3059441905681,371.8460462938556 M718.6402773352186,359.1178629903298 L714.9905280444099,358.0276943697279 M447.15280121404953,294.94826583521177 L447.2453190188085,282.3556463146823 M714.3059441905681,371.8460462938556 L447.15280121404953,294.94826583521177 M714.9905280444099,358.0276943697279 L447.2453190188085,282.3556463146823 M440.7722184419403,293.32534234444756 L440.8520375476281,280.7589448660305 M447.15280121404953,294.94826583521177 L440.7722184419403,293.32534234444756 M447.2453190188085,282.3556463146823 L440.8520375476281,280.7589448660305 M440.7722184419403,293.32534234444756 L436.10910156331164,292.3677154693319 M436.10910156331164,292.3677154693319 L431.2034975387708,291.53027613248094 M431.2034975387708,291.53027613248094 L426.0890945761464,290.81819078694826 M426.0890945761464,290.81819078694826 L420.80061181997905,290.235823348664 M420.80061181997905,290.235823348664 L415.37370577396433,289.78672020111094 M415.37370577396433,289.78672020111094 L409.8445806914849,289.47359937398 M409.8445806914849,289.47359937398 L404.250074493615,289.29835558709806 M404.250074493615,289.29835558709806 L398.62724591206086,289.2620438654687 M398.62724591206086,289.2620438654687 L393.01330497400045,289.3648824067083 M393.01330497400045,289.3648824067083 L387.4454612615132,289.6062499314433 M387.4454612615132,289.6062499314433 L381.9606730550302,289.9846897717318 M381.9606730550302,289.9846897717318 L376.5954768287794,290.4979167245255 M376.5954768287794,290.4979167245255 L371.3858664813332,291.14281871041715 M371.3858664813332,291.14281871041715 L366.36703707486004,291.9154493959285 M366.36703707486004,291.9154493959285 L361.57328371940224,292.8110657922898 M361.57328371940224,292.8110657922898 L357.03769078367503,293.8241126816455 M357.03769078367503,293.8241126816455 L352.792041671333,294.94826583521177 M440.8520375476281,280.7589448660305 L436.17970032177766,279.8167974884675 M436.17970032177766,279.8167974884675 L431.26443864716856,278.99289904898285 M431.26443864716856,278.99289904898285 L426.1400035086975,278.29233075711 M426.1400035086975,278.29233075711 L420.8411777603283,277.7193844420259 M420.8411777603283,277.7193844420259 L415.4036825132817,277.2775478464256 M415.4036825132817,277.2775478464256 L409.8637869378014,276.9694940192303 M409.8637869378014,276.9694940192303 L404.2583945360939,276.79708630838775 M404.2583945360939,276.79708630838775 L398.6246296811339,276.7613622625551 M398.6246296811339,276.7613622625551 L392.99976817475266,276.862536464267 M392.99976817475266,276.862536464267 L387.42108542358045,277.09999792572546 M387.42108542358045,277.09999792572546 L381.9256053051216,277.4723141039167 M381.9256053051216,277.4723141039167 L376.54992953582484,277.97723762653555 M376.54992953582484,277.97723762653555 L371.3301168609306,278.6117078980713 M371.3301168609306,278.6117078980713 L366.3014264755191,279.3718438067469 M366.3014264755191,279.3718438067469 L361.49821687017965,280.2529806723733 M361.49821687017965,280.2529806723733 L356.9536345749498,281.249654874342 M356.9536345749498,281.249654874342 L352.699523866574,282.3556463146823 M420.27327723559193,301.0163214792023 L420.3134334351725,288.3257878980237 M376.5242872619568,301.83182280571873 L376.4778516349304,289.1281458549995 M420.27327723559193,301.0163214792023 L416.96595415495585,300.3508736358619 M416.96595415495585,300.3508736358619 L413.42129617978065,299.8081577103284 M413.42129617978065,299.8081577103284 L409.68922165744016,299.3954487245233 M409.68922165744016,299.3954487245233 L405.82200859715044,299.11826347271165 M405.82200859715044,299.11826347271165 L401.8735374571701,298.98029172947514 M401.8735374571701,298.98029172947514 L397.89868529707866,298.9833640052422 M397.89868529707866,298.9833640052422 L393.9525910226329,299.12744190804005 M393.9525910226329,299.12744190804005 L390.09016749504667,299.410609469341 M390.09016749504667,299.410609469341 L386.365181066039,299.82909490276074 M386.365181066039,299.82909490276074 L382.82981571461505,300.3773108395852 M382.82981571461505,300.3773108395852 L379.53390092188744,301.047901642342 M379.53390092188744,301.047901642342 L376.5242872619568,301.83182280571873 M420.3134334351725,288.3257878980237 L416.99953639087175,287.67106775392216 M416.99953639087175,287.67106775392216 L413.4478529539868,287.1371027798425 M413.4478529539868,287.1371027798425 L409.70839759167,286.73104955788835 M409.70839759167,286.73104955788835 L405.8335480808242,286.45833500635285 M405.8335480808242,286.45833500635285 L401.87728704985193,286.3225887577378 M401.87728704985193,286.3225887577378 L397.89459522578267,286.32561147631714 M397.89459522578267,286.32561147631714 L393.9407155441247,286.46736539656814 M393.9407155441247,286.46736539656814 L390.07066461817317,286.7459657884587 M390.07066461817317,286.7459657884587 L386.33831077203774,287.15770234301425 M386.33831077203774,287.15770234301425 L382.7959376055849,287.69707871611337 M382.7959376055849,287.69707871611337 L379.4934705932862,288.35685901763304 M379.4934705932862,288.35685901763304 L376.4778516349304,289.1281458549995 M423.42055562342574,301.83182280571884 L423.4669912504521,289.1281458549995 M423.42055562342574,301.83182280571884 L420.27327723559193,301.0163214792023 M423.4669912504521,289.1281458549995 L420.3134334351725,288.3257878980237 M691.7963539154075,380.61757890432784 L692.4391379097985,366.6614930748096 M691.7963539154075,380.61757890432784 L423.42055562342574,301.83182280571884 M692.4391379097985,366.6614930748096 L423.4669912504521,289.1281458549995 M693.5910799712956,381.17467806288687 L694.2382787240751,367.2098588569063 M693.5910799712956,381.17467806288687 L691.7963539154075,380.61757890432784 M694.2382787240751,367.2098588569063 L692.4391379097985,366.6614930748096 M698.3541930707888,398.1957756412923 L699.0262240856598,383.96495418441276 M698.3541930707888,398.1957756412923 L701.034744071342,397.0003861708623 M701.034744071342,397.0003861708623 L703.1924438771097,395.68646548619483 M703.1924438771097,395.68646548619483 L704.7949930287219,394.2758196620906 M704.7949930287219,394.2758196620906 L705.8195769177692,392.7916227565845 M705.8195769177692,392.7916227565845 L706.2530433128826,391.2579991178451 M706.2530433128826,391.2579991178451 L706.0918886244324,389.6995946526988 M706.0918886244324,389.6995946526988 L705.3421495016985,388.141159484122 M705.3421495016985,388.141159484122 L704.0190508537526,386.6071705142578 M704.0190508537526,386.6071705142578 L702.1465650228978,385.12142999525474 M702.1465650228978,385.12142999525474 L699.7568398270126,383.7067354490481 M699.7568398270126,383.7067354490481 L696.8895418591283,382.384533049621 M696.8895418591283,382.384533049621 L693.5910799712956,381.17467806288687 M699.0262240856598,383.96495418441276 L701.7117966465213,382.78819357761313 M701.7117966465213,382.78819357761313 L703.8732244313495,381.49475807816896 M703.8732244313495,381.49475807816896 L705.4781580067611,380.1061161238506 M705.4781580067611,380.1061161238506 L706.5037570531222,378.64508228007185 M706.5037570531222,378.64508228007185 L706.9368674548008,377.135405908785 M706.9368674548008,377.135405908785 L706.7740066030426,375.6013490164195 M706.7740066030426,375.6013490164195 L706.0212537813156,374.0672753646025 M706.0212537813156,374.0672753646025 L704.6938964590306,372.55727891669903 M704.6938964590306,372.55727891669903 L702.815987553975,371.09478872046975 M702.815987553975,371.09478872046975 L700.4197714041579,369.70224407344506 M700.4197714041579,369.70224407344506 L697.5450248956629,368.4007534522316 M697.5450248956629,368.4007534522316 L694.2382787240751,367.2098588569063 M430.0805777746681,501.6325483173333 L430.15718106253155,485.81978635566014 M430.0805777746681,501.6325483173333 L698.3541930707888,398.1957756412923 M430.15718106253155,485.81978635566014 L699.0262240856598,383.96495418441276 M373.83626627618617,502.9806662854361 L373.7696693307502,487.1476783131277 M373.83626627618617,502.9806662854361 L378.046750080696,504.0860437439035 M378.046750080696,504.0860437439035 L382.5894165546201,504.9911106766043 M382.5894165546201,504.9911106766043 L387.39625165604525,505.6815220659548 M387.39625165604525,505.6815220659548 L392.3945977740203,506.1462668421699 M392.3945977740203,506.1462668421699 L397.5085149023838,506.37791296783075 M397.5085149023838,506.37791296783075 L402.6600220771718,506.37275252414827 M402.6600220771718,506.37275252414827 L407.7705515875914,506.13086423805294 M407.7705515875914,506.13086423805294 L412.7620985448795,505.6561270069252 M412.7620985448795,505.6561270069252 L417.55891439191885,504.95613496705187 M417.55891439191885,504.95613496705187 L422.0885245968748,504.04203727557183 M422.0885245968748,504.04203727557183 L426.28310681117756,502.9283274049949 M426.28310681117756,502.9283274049949 L430.0805777746681,501.6325483173333 M373.7696693307502,487.1476783131277 L377.99081333068665,488.2364791569925 M377.99081333068665,488.2364791569925 L382.5450246208466,489.12797844816896 M382.5450246208466,489.12797844816896 L387.3641106805782,489.8080431021526 M387.3641106805782,489.8080431021526 L392.3752211493209,490.26582454770556 M392.3752211493209,490.26582454770556 L397.5022130393884,490.4940003373138 M397.5022130393884,490.4940003373138 L402.66689603696,490.4889172000076 M402.66689603696,490.4889172000076 L407.7904912005169,490.2506527035806 M407.7904912005169,490.2506527035806 L412.79478426474986,489.78302857508993 M412.79478426474986,489.78302857508993 L417.60382424726237,489.0935269666607 M417.60382424726237,489.0935269666607 L422.14494442779613,488.1931324949655 M422.14494442779613,488.1931324949655 L426.350144584222,487.0961244923791 M426.350144584222,487.0961244923791 L430.15718106253155,485.81978635566014 M369.86426511071437,501.6325483173332 L369.78766182285096,485.81978635566014 M369.86426511071437,501.6325483173332 L373.83626627618617,502.9806662854361 M369.78766182285096,485.81978635566014 L373.7696693307502,487.1476783131277 M101.59064981459358,398.1957756412923 L100.91861879972271,383.9649541844127 M101.59064981459358,398.1957756412923 L369.86426511071437,501.6325483173332 M100.91861879972271,383.9649541844127 L369.78766182285096,485.81978635566014 M100.18740062822337,397.61419470272324 L99.51270121303202,383.3924355718265 M100.18740062822337,397.61419470272324 L101.59064981459358,398.1957756412923 M99.51270121303202,383.3924355718265 L100.91861879972271,383.9649541844127 M108.148488969975,380.61757890432784 L107.50570497558397,366.6614930748096 M108.148488969975,380.61757890432784 L104.65378824480439,381.76439158189004 M104.65378824480439,381.76439158189004 L101.56470689551298,383.0327902068726 M101.56470689551298,383.0327902068726 L98.9307899224458,384.4038285318938 M98.9307899224458,384.4038285318938 L96.79517893628974,385.8568201569134 M96.79517893628974,385.8568201569134 L95.19386240525569,387.3696003794377 M95.19386240525569,387.3696003794377 L94.15499269426374,388.9188320225075 M94.15499269426374,388.9188320225075 L93.69821479417402,390.480340927292 M93.69821479417402,390.480340927292 L93.83420736384903,392.02945724669166 M93.83420736384903,392.02945724669166 L94.56426681131063,393.5414288949268 M94.56426681131063,393.5414288949268 L95.8800859624568,394.9918109778813 M95.8800859624568,394.9918109778813 L97.76364801197678,396.35691638552544 M97.76364801197678,396.35691638552544 L100.18740062822337,397.61419470272324 M107.50570497558397,366.6614930748096 L104.00235090924747,367.79032959423967 M104.00235090924747,367.79032959423967 L100.90538726082036,369.0388547062732 M100.90538726082036,369.0388547062732 L98.26448596240948,370.38842137020214 M98.26448596240948,370.38842137020214 L96.12290498243004,371.8186692471438 M96.12290498243004,371.8186692471438 L94.5167364577041,373.30778228375743 M94.5167364577041,373.30778228375743 L93.47422159695861,374.8327896137886 M93.47422159695861,374.8327896137886 L93.0150771613591,376.36989569844906 M93.0150771613591,376.36989569844906 L93.15003463812752,377.8948162227275 M93.15003463812752,377.8948162227275 L93.8804224337365,379.38318507144555 M93.8804224337365,379.38318507144555 L95.19794309445251,380.8109377156062 M95.19794309445251,380.8109377156062 L97.08456604066714,382.15475485926294 M97.08456604066714,382.15475485926294 L99.51270121303202,383.3924355718265 M376.5242872619568,301.83182280571873 L108.148488969975,380.61757890432784 M376.4778516349304,289.1281458549995 L107.50570497558397,366.6614930748096" stroke="black"  stroke-width="4"  fill="red"/></svg>